/* XPM */
static char *month_xpm[] = {
/* width height num_colors chars_per_pixel */
"    20    72      218            2",
/* colors */
".. c #171717",
".# c #1a1a1a",
".a c #1b1b1b",
".b c #1c1c1c",
".c c #1d1d1d",
".d c #202020",
".e c #212121",
".f c #242424",
".g c #252525",
".h c #262626",
".i c #282828",
".j c #292929",
".k c #2a2a2a",
".l c #2b2b2b",
".m c #2c2c2c",
".n c #2d2d2d",
".o c #2e2e2e",
".p c #2f2f2f",
".q c #303030",
".r c #313131",
".s c #323232",
".t c #333333",
".u c #343434",
".v c #353535",
".w c #363636",
".x c #373737",
".y c #383838",
".z c #393939",
".A c #3a3a3a",
".B c #3b3b3b",
".C c #3c3c3c",
".D c #3d3d3d",
".E c #3f3f3f",
".F c #404040",
".G c #414141",
".H c #424242",
".I c #434343",
".J c #444444",
".K c #454545",
".L c #464646",
".M c #474747",
".N c #484848",
".O c #494949",
".P c #4b4b4b",
".Q c #4c4c4c",
".R c #4d4d4d",
".S c #4e4e4e",
".T c #4f4f4f",
".U c #505050",
".V c #515151",
".W c #525252",
".X c #535353",
".Y c #545454",
".Z c #555555",
".0 c #565656",
".1 c #595959",
".2 c #5a5a5a",
".3 c #5b5b5b",
".4 c #5c5c5c",
".5 c #5d5d5d",
".6 c #5e5e5e",
".7 c #5f5f5f",
".8 c #606060",
".9 c #616161",
"#. c #626262",
"## c #636363",
"#a c #646464",
"#b c #656565",
"#c c #666666",
"#d c #676767",
"#e c #686868",
"#f c #696969",
"#g c #6a6a6a",
"#h c #6b6b6b",
"#i c #6c6c6c",
"#j c #6d6d6d",
"#k c #6e6e6e",
"#l c #6f6f6f",
"#m c #707070",
"#n c #717171",
"#o c #727272",
"#p c #737373",
"#q c #747474",
"#r c #767676",
"#s c #777777",
"#t c #787878",
"#u c #797979",
"#v c #7a7a7a",
"#w c #7b7b7b",
"#x c #7c7c7c",
"#y c #7d7d7d",
"#z c #7e7e7e",
"#A c #7f7f7f",
"#B c #808080",
"#C c #818181",
"#D c #828282",
"#E c #838383",
"#F c #848484",
"#G c #858585",
"#H c #868686",
"#I c #878787",
"#J c #898989",
"#K c #8a8a8a",
"#L c #8b8b8b",
"#M c #8c8c8c",
"#N c #8d8d8d",
"#O c #8e8e8e",
"#P c #8f8f8f",
"#Q c #909090",
"#R c #919191",
"#S c #929292",
"#T c #939393",
"#U c #949494",
"#V c #959595",
"#W c #969696",
"#X c #979797",
"#Y c #989898",
"#Z c #999999",
"#0 c #9a9a9a",
"#1 c #9b9b9b",
"#2 c #9c9c9c",
"#3 c #9d9d9d",
"#4 c #9e9e9e",
"#5 c #9f9f9f",
"#6 c #a0a0a0",
"#7 c #a1a1a1",
"#8 c #a2a2a2",
"#9 c #a3a3a3",
"a. c #a4a4a4",
"a# c #a5a5a5",
"aa c #a6a6a6",
"ab c #a7a7a7",
"ac c #a8a8a8",
"ad c #a9a9a9",
"ae c #aaaaaa",
"af c #ababab",
"ag c #acacac",
"ah c #adadad",
"ai c #aeaeae",
"aj c #afafaf",
"ak c #b0b0b0",
"al c #b1b1b1",
"am c #b2b2b2",
"an c #b3b3b3",
"ao c #b4b4b4",
"ap c #b5b5b5",
"aq c #b6b6b6",
"ar c #b7b7b7",
"as c #b8b8b8",
"at c #b9b9b9",
"au c #bababa",
"av c #bbbbbb",
"aw c #bcbcbc",
"ax c #bdbdbd",
"ay c #bebebe",
"az c #bfbfbf",
"aA c #c0c0c0",
"aB c #c1c1c1",
"aC c #c2c2c2",
"aD c #c3c3c3",
"aE c #c4c4c4",
"aF c #c6c6c6",
"aG c #c7c7c7",
"aH c #c8c8c8",
"aI c #c9c9c9",
"aJ c #cacaca",
"aK c #cbcbcb",
"aL c #cccccc",
"aM c #cdcdcd",
"aN c #cecece",
"aO c #cfcfcf",
"aP c #d0d0d0",
"aQ c #d1d1d1",
"aR c #d2d2d2",
"aS c #d3d3d3",
"aT c #d4d4d4",
"aU c #d5d5d5",
"aV c #d6d6d6",
"aW c #d7d7d7",
"aX c #d8d8d8",
"aY c #d9d9d9",
"aZ c #dadada",
"a0 c #dbdbdb",
"a1 c #dcdcdc",
"a2 c #dedede",
"a3 c #dfdfdf",
"a4 c #e0e0e0",
"a5 c #e1e1e1",
"a6 c #e2e2e2",
"a7 c #e3e3e3",
"a8 c #e4e4e4",
"a9 c #e5e5e5",
"b. c #e6e6e6",
"b# c #e7e7e7",
"ba c #e8e8e8",
"bb c #e9e9e9",
"bc c #eaeaea",
"bd c #ebebeb",
"be c #ececec",
"bf c #ededed",
"bg c #eeeeee",
"bh c #efefef",
"bi c #f0f0f0",
"bj c #f1f1f1",
"bk c #f2f2f2",
"bl c #f3f3f3",
"bm c #f4f4f4",
"bn c #f5f5f5",
"bo c #f6f6f6",
"bp c #f7f7f7",
"bq c #f8f8f8",
"br c #f9f9f9",
"bs c #fafafa",
"bt c #fbfbfb",
"bu c #fcfcfc",
"bv c #fdfdfd",
"bw c #fefefe",
"bx c #ffffff",
/* pixels */
"bxbxbwa6#w#4bxbxbxbxar.k#t#w#D.9.yaNbxbx",
"bxbxbrav.o#zbxbxbxbxap.w#4#7ae#F.EaLbxbx",
"bxbxbxbx.4#vbxbxbxbxao.u#4#7ae#G.FaKbxbx",
"bxbxbxbq.W#sbxbxbxbf#A.Ma#aaah#F.AaIbxbx",
"bxbxbxbt#Qabbxbxbu#3.6aVbxbxbxaw#iaXbxbx",
"bxbxbxbxbfbobxbxbtaIb.bfaYaYaRaoaNbtbxbx",
"bxbxb##O#N#KaobsbxbxaQ#c#2#4a##Z#za2bxbx",
"bxbxas.9aS#B.yaZbxbxam.m#V#Y#7#u.vaIbxbx",
"bxbxbiblaD.Y#Mblbxbxau.t#U#X#6#v.DaLbxbx",
"bxbxbe#z#paRbxbxbxbx#Q.vapamaA#9.LaIbxbx",
"bxbv#Q.x#I#S#Xbcbx#Q.HaAbrbrbp#S.zaMbxbx",
"bxbwbqbobobkbhbtbwaTbdbxbxbxbua8bfbwbxbx",
"bxbxbwbdaGaXbrbxbxbxb#a.aaabacacanbibxbx",
"bxbxaz.U#4.7#jbjbxbxal.p#5#9ag#E.xaHbxbx",
"bxbxa1aZbt#h.7bebxbxaq.t#V#Y#6#w.DaLbxbx",
"bxbvb.bdaN.Y#jbfbxbxac.r#1#2aa#H.FaKbxbx",
"bxbr#U#gaP#T.RaWbxaL.4#va2aZa5#6.DaIbxbx",
"bxbxa8a.acapa1bxbv#1#Xbxbxbxbxak#Xbcbxbx",
"bxbxbxbxbwaJbbbxbvblbeahaqauarabapbjbxbx",
"bxbxbxbs#D..acbxbxbxav.y#N#Q#Y#w.NaPbxbx",
"bxbxbp#S#D.C#1bxbxbxap.w#8a#aj#H.DaKbxbx",
"bxbo#o.t#2.w.2babxbxas.h#C#G#O#l.BaMbxbx",
"bxbraIaAaw.l##bobxa5.O#obkbfbmau.IaFbxbx",
"bxbxbwbwbsataSbxbs#L#Zbwbxbxbo#8#Nbcbxbx",
"bxbxbtb#a2b.bfbtbxbxbfalajakalanaGbnbxbx",
"bxbxas.n#r#u#6bkbxbxal.l#W#0#9#w.uaIbxbx",
"bxbxag.Maj#4aIbsbxbxar.t#S#V#3#u.DaLbxbx",
"bxbvaF#8bf#K.laQbxbxaf.s#6#7af#J.FaKbxbx",
"bxbsaf#PaQ#L.Za1bxaQ.7#naUaRaZ#4.CaHbxbx",
"bxbxaY#1aiabaYbxbw#3#Nbxbxbxbxau#Vbabxbx",
"bxbxbxbxaXa4bxbxbwbgbdapauaxauadaubmbxbx",
"bxbxbg#R#Y#L#Obfbxbxaw.D#Q#T#1#A.RaQbxbx",
"bxbx#7.y#U#zaabrbxbxap.u#5#8ag#E.CaKbxbx",
"bxbv#p.sa7#5.SaVbxbxau.i#B#F#M#j.BaMbxbx",
"bxbx#V.uboap.jaFbxbc.W#ebhbablau.KaFbxbx",
"bxbxbn#5#n#kakbwbt#B#Kbtbxbxbn#V#vb.bxbx",
"bxbxbwbwbxbxbwbwbxbxblaCavawavauaObqbxbx",
"bxbxaJ#u#E#k#vb#bxbxan.l#T#X#5#v.waJbxbx",
"bxbxbla8bj#d.Xbbbxbxaq.r#S#V#3#t.CaLbxbx",
"bxbxbxbxaR.Laubxbxbxai.s#6#7ag#J.GaKbxbx",
"bxbxbxbj#b#hbqbxbwaU#b#eaKaJaR#Z.AaHbxbx",
"bxbxbxaY#qaQbxbxbu#Z#Ebrbxbxbxav#Ma9bxbx",
"bxbxbxboaHbfbxbxbwb.bcauasatap#9atbnbxbx",
"bxbxaP#Ial#O#9bmbxbxaz.G#Q#U#1#C.WaRbxbx",
"bxbx#5.Ia7#F.0b.bxbxao.u#7a.ai#G.CaKbxbx",
"bxbxaz.R#K.5#wblbxbxau.i#A#E#L#h.BaMbxbx",
"bxbk#..7brao.uaEbxbl.1.6baa5bfar.KaGbxbx",
"bxbxaQ#w#L#u#6bpbx#H#Cbnbxbxbp#3#sa7bxbx",
"bxbxbxbpa3bgbxbxbxbxboaKazaAazaxaUbsbxbx",
"bxbxaH.4#v#c#9btbxbxan.k#L#P#Y#p.xaKbxbx",
"bxbt#i.Pbx#7.paMbxbxaq.u#Z#2a.#z.DaLbxbx",
"bxbxao.3ax#z.gaJbxbxak.s#3#6ae#I.GaKbxbx",
"bxbxaY#Iag#g.9b.bxa0#e.8aBaAaH#T.zaHbxbx",
"bxbxa2#Wa.#1a0bxbx#1#tb.bxbxbxaw#Gbcbxbx",
"bxbxbxbxbgbxbxa5bibdbsbxbxbcatacaraAaxaz",
"aD#L#8bxbxa2#w#E#panbxbxbxam.Q#0#9#1#M.x",
"aS.S#kbxbq#a#ia1aq.BaObxbxa#.w#U#5#4#M.a",
"bl#.#jbxa6.x#3bxbq.s#7bxbxag.n#B#M#K#y.c",
"bl.9#gbxbu.U#mbxaP.jaIbxbo.5.1baa3a5aI.f",
"bo#I#ObxbxaW#n#s#eacbwbl#v#pbjbxbxbj#Y.Y",
"bxbxbxbxbxbxbxbrbxbxbxbvbsbra3aOaRaPaJa5",
"baanakbxbxbtbgaaazbubxbxbxaa.q#I#S#S#E.b",
"aj.u#ibxbxbmas.d#Kbxbxbxbxab.u#N#Z#X#H.b",
"bt#f#jbxbxbxbx.W#Kbxbxbxbxa..w#7aead#Z.e",
"bl.5#dbxbxbxbx.L#Hbxbxbxa1#c.3awaxay#7..",
"bo#P#Zbxbxbxbx#Ianbxbxbp#V#rbfbxbxbxaI#n",
"bxbba1bxbxbxbcagazbxbxbpaZa7aIavaxataaaw",
"au#n#Vbxbxaz.1#W#x#ybqbxbxas.S#S#2#1#V.J",
"aY.U#ibxbxar#Zbs#F.jbjbxbxa#.w#Za##9#Q.#",
"bn#b#jbxbxbubm#P.1atbvbxbxah.n#v#H#H#s.b",
"bl.9#gbxbxaJ.V#Hbfbxbwbxbu#d.Ta1aUaYaG.h",
"bo#R#Ybxbx#M.Z#O#K#Qblbl#s#fbabxbwbi#S.J"
};
