/* XPM */
static char *weekday_xpm[] = {
/* width height num_colors chars_per_pixel */
"    20    43      168            2",
/* colors */
".. c #292929",
".# c #303030",
".a c #393939",
".b c #3c3c3c",
".c c #3f3f3f",
".d c #404040",
".e c #4a4a4a",
".f c #505050",
".g c #555555",
".h c #575757",
".i c #585858",
".j c #5a5a5a",
".k c #5e5e5e",
".l c #616161",
".m c #636363",
".n c #646464",
".o c #666666",
".p c #676767",
".q c #686868",
".r c #696969",
".s c #6b6b6b",
".t c #6c6c6c",
".u c #6d6d6d",
".v c #6e6e6e",
".w c #6f6f6f",
".x c #707070",
".y c #717171",
".z c #727272",
".A c #737373",
".B c #747474",
".C c #757575",
".D c #767676",
".E c #777777",
".F c #787878",
".G c #797979",
".H c #7a7a7a",
".I c #7b7b7b",
".J c #7c7c7c",
".K c #7d7d7d",
".L c #7e7e7e",
".M c #7f7f7f",
".N c #808080",
".O c #818181",
".P c #828282",
".Q c #838383",
".R c #848484",
".S c #858585",
".T c #868686",
".U c #878787",
".V c #888888",
".W c #898989",
".X c #8a8a8a",
".Y c #8b8b8b",
".Z c #8c8c8c",
".0 c #8d8d8d",
".1 c #8e8e8e",
".2 c #8f8f8f",
".3 c #909090",
".4 c #919191",
".5 c #929292",
".6 c #939393",
".7 c #949494",
".8 c #959595",
".9 c #969696",
"#. c #979797",
"## c #989898",
"#a c #999999",
"#b c #9a9a9a",
"#c c #9c9c9c",
"#d c #9d9d9d",
"#e c #9e9e9e",
"#f c #9f9f9f",
"#g c #a0a0a0",
"#h c #a1a1a1",
"#i c #a2a2a2",
"#j c #a3a3a3",
"#k c #a4a4a4",
"#l c #a5a5a5",
"#m c #a6a6a6",
"#n c #a7a7a7",
"#o c #a8a8a8",
"#p c #a9a9a9",
"#q c #aaaaaa",
"#r c #ababab",
"#s c #acacac",
"#t c #adadad",
"#u c #aeaeae",
"#v c #afafaf",
"#w c #b0b0b0",
"#x c #b1b1b1",
"#y c #b2b2b2",
"#z c #b3b3b3",
"#A c #b4b4b4",
"#B c #b5b5b5",
"#C c #b6b6b6",
"#D c #b7b7b7",
"#E c #b8b8b8",
"#F c #b9b9b9",
"#G c #bababa",
"#H c #bbbbbb",
"#I c #bcbcbc",
"#J c #bdbdbd",
"#K c #bebebe",
"#L c #bfbfbf",
"#M c #c0c0c0",
"#N c #c1c1c1",
"#O c #c2c2c2",
"#P c #c3c3c3",
"#Q c #c4c4c4",
"#R c #c5c5c5",
"#S c #c6c6c6",
"#T c #c7c7c7",
"#U c #c8c8c8",
"#V c #c9c9c9",
"#W c #cacaca",
"#X c #cbcbcb",
"#Y c #cccccc",
"#Z c #cdcdcd",
"#0 c #cecece",
"#1 c #cfcfcf",
"#2 c #d0d0d0",
"#3 c #d1d1d1",
"#4 c #d2d2d2",
"#5 c #d3d3d3",
"#6 c #d4d4d4",
"#7 c #d5d5d5",
"#8 c #d6d6d6",
"#9 c #d7d7d7",
"a. c #d8d8d8",
"a# c #d9d9d9",
"aa c #dadada",
"ab c #dbdbdb",
"ac c #dcdcdc",
"ad c #dddddd",
"ae c #dedede",
"af c #dfdfdf",
"ag c #e0e0e0",
"ah c #e1e1e1",
"ai c #e2e2e2",
"aj c #e3e3e3",
"ak c #e4e4e4",
"al c #e5e5e5",
"am c #e6e6e6",
"an c #e7e7e7",
"ao c #e8e8e8",
"ap c #e9e9e9",
"aq c #eaeaea",
"ar c #ebebeb",
"as c #ececec",
"at c #ededed",
"au c #eeeeee",
"av c #efefef",
"aw c #f0f0f0",
"ax c #f1f1f1",
"ay c #f2f2f2",
"az c #f3f3f3",
"aA c #f4f4f4",
"aB c #f5f5f5",
"aC c #f6f6f6",
"aD c #f7f7f7",
"aE c #f8f8f8",
"aF c #f9f9f9",
"aG c #fafafa",
"aH c #fbfbfb",
"aI c #fcfcfc",
"aJ c #fdfdfd",
"aK c #fefefe",
"aL c #ffffff",
/* pixels */
"aL#D#h#fadaLaLaHaJaLaLa#acaAaLaLaLaLatag",
"aD.A#l.R#raLaL#x#5aJaL#Q.L#Kaq#c#Bao.8#p",
"aE.z.7.F#taLaL#w.B#nan#j.S.6aq.x#P#X.CaL",
"aG.y.6.F#taLaB#l#maIas#Iam.A#S#.aLac.b#7",
"ao.z#0#n#xaw.Z.z.n#naEaLar.s#1.OaJ#A.Y#S",
"#f#AaL#f#Cax.1.5#8#Qayag.u#KaL#k.N.MaxaL",
"aAaL#XapaLaLaDaxaLaLaL#7#3aIaLaLazaKaBag",
"aBal.WasadaKaL#G#3aKaL#T.P#Gat#i#Cas#a#j",
"#C.6#e#x.YaKaL#C.x#jap#o.S.3ar.z#G#6.xaL",
"#0#W.i#taoaLaD#s#haFav#Eai.F#P#aaJak.a#4",
"aL#g.G.Rasax.1.E.l#oaDaLaw.t#Y.QaJ#I.S#O",
".Z.NaL#K.qaj.2.2#4#Ravaj.t#DaL#o.K.JataL",
"anaLaiayaEaLaEaxaLaLaLadabaLaLaLayaIaDar",
"aDap#g#3#5aAaL#CaiaLaL#G.T#Rar#p#Oat.7#o",
"#Z.K.f.p.3azaL#m.A#pao#t.M#eam.o#P#Q.NaL",
"aL#q.F.easaLaF#k#saBal#v#8.t#2#.aL#5.dag",
"#5.X#D#d.Qab#b.E.q#BaJaLaA.t#Y.QaL#E.P#R",
"#cae#b#9#v#k.W.S#Y#Cayaa.p#CaJ.8.K.GavaL",
"aLaL#uayaLaLawayaLaLaLajalaLaLaLanaFaLaE",
"ac#S.R#B#UaFaL#FaDaLaL#j.W#4au#Oafaw.2#J",
"#L#b...E#eazaL.X.1#Hat#C.T#O#5.g#5#t#baE",
"aL#8.#.RaLaLaL.4#Bar#Z#c#G.xad.8aL#t.jaB",
"#K.P#a.7.P#6#n.n.T#7aLaLaD.A#M.9aL#r.G#0",
"#jat#lat#H#p.N.I#I#laF#3.o#GaC.G.6.GazaL",
"aLaL#CaoaLaLagaraLaLaL#4#WaLaLaG#5ayaLas",
"aLai.G.5aDaLaL#0#7aLaL#S.V#CaB#L#NaB#n.7",
"#H.i.K.o.va#aL#O.v#eax#H.0.9au.w#fal.taG",
"#g.9.i.U#.aiaL#N.9asaw#g#S.D#Q#faxav.a#8",
"aA.8.G.R#laH#l.V.k#EaDaLaL.H#K.WaLa..w#B",
"ak.Q.s.C#kaq.P.N#C#yajas.D.7aI#f.O.B#7aL",
"aa#B#r#y#AawazaraLaLaLar#7aLaLaLagaqaLaD",
"aLaL#saBaLaLaL#0aiaLaL#F.U#KaD#1#7aF#r#f",
"ai#l.h.2#JaLaL#w.M#raA#R.0#oam.m#m#6.Jaw",
"an#B.m#e#VaLaL#H.9afak.6#C.t#6#caAah.cap",
"aLaL.8axaLaE#p.N.s#0aIaLaL.F#K.YaL#6.r#C",
"#G#c.h.W#e#5.F.I#p#garan.C.4aF.Z.5.B#9aJ",
"#6#Y#1#Z#SayalaiaLaLaLaB#8aLaLaI#SafaLaL",
"ax.8##.8#YaLaL#8aFaLaJ#f#gafaGaxaFaL#v#R",
"#X.Qaj#F.YaLaL.Y#GabaG#Y.W#4#2.i#Q#H.4ai",
"#4.k.8.I.2aLaL.9.0#X#U.N.5.Jal.UaJ#n.CaL",
"#0.2as#P.7aG#D.q#zaGaGaLaL.B#J#caL#C.h#0",
"#3.j.8.I.9#4.U.w.W#.aGaq.P.7am.C#P.Ha#ay",
"at#WalacagaF#w#QaLaEaK#W#laJaL#Y#a#WaLaL"
};
