/* XPM */
static char *WPrefs[] = {
/* columns rows colors chars-per-pixel */
"54 57 155 2",
"   c black",
".  c #010101",
"X  c #010201",
"o  c #020303",
"O  c #030403",
"+  c #040504",
"@  c #040605",
"#  c #050706",
"$  c #060807",
"%  c #060907",
"&  c #070A08",
"*  c #070B09",
"=  c #090D0B",
"-  c #0B100D",
";  c #0B100E",
":  c #0C120F",
">  c #0D130F",
",  c #0E1511",
"<  c #0F1511",
"1  c #0F1612",
"2  c #101713",
"3  c #111814",
"4  c #121915",
"5  c #121A16",
"6  c #131B16",
"7  c #131B17",
"8  c #131C17",
"9  c #141C17",
"0  c #151E19",
"q  c #161F1A",
"w  c #16201A",
"e  c #17211B",
"r  c #17211C",
"t  c #19241E",
"y  c #1A251F",
"u  c #1A261F",
"i  c #1B2720",
"p  c #1B2721",
"a  c #202D25",
"s  c #202E26",
"d  c #212F27",
"f  c #223128",
"g  c #233129",
"h  c #233229",
"j  c #24332A",
"k  c #24342B",
"l  c #26372D",
"z  c #27382F",
"x  c #283A30",
"c  c #293A30",
"v  c #2A3C32",
"b  c #2B3D33",
"n  c #2B3E33",
"m  c #2D4035",
"M  c #2E4237",
"N  c #2F4338",
"B  c #2F4438",
"V  c #304438",
"C  c #33493D",
"Z  c #354C3F",
"A  c #354D40",
"S  c #364E40",
"D  c #374E41",
"F  c #395244",
"G  c #3A5445",
"H  c #3C5546",
"J  c #3D5748",
"K  c gray25",
"L  c #405B4B",
"P  c #425D4E",
"I  c #425E4E",
"U  c #425F4E",
"Y  c #435F4F",
"T  c #446150",
"R  c #476655",
"E  c #496856",
"W  c #4B6A58",
"Q  c #4B6B59",
"!  c #4C6C59",
"~  c #4C6C5A",
"^  c #4D6E5B",
"/  c #4E6F5C",
"(  c #4F715E",
")  c #50725E",
"_  c #517460",
"`  c #527561",
"'  c #537661",
"]  c #527662",
"[  c #547863",
"{  c #557B66",
"}  c #567A66",
"|  c #567B66",
" . c #5A7F69",
".. c #59806A",
"X. c #5A816B",
"o. c #5B816B",
"O. c #5A826C",
"+. c #5C836C",
"@. c #5E866F",
"#. c #5F8871",
"$. c #608972",
"%. c #618A72",
"&. c #618B73",
"*. c #628B73",
"=. c #628C74",
"-. c #638D75",
";. c #638E75",
":. c #638E76",
">. c #648F76",
",. c #648F77",
"<. c #659078",
"1. c #659178",
"2. c #669179",
"3. c #679279",
"4. c #67937A",
"5. c #69967C",
"6. c #6A977D",
"7. c #6A977E",
"8. c #6A997E",
"9. c #6D9B81",
"0. c #6D9C80",
"q. c #6D9C81",
"w. c #6E9C82",
"e. c #6E9D82",
"r. c #6F9E83",
"t. c #6F9F83",
"y. c #6F9F84",
"u. c #70A085",
"i. c #71A185",
"p. c #73A488",
"a. c #78AA8D",
"s. c #78AB8D",
"d. c #78AB8E",
"f. c #79AC8F",
"g. c #79AD8F",
"h. c #7AAD90",
"j. c #7BB193",
"k. c #7CB193",
"l. c #7EB495",
"z. c #7EB496",
"x. c #7FB596",
"c. c #80B898",
"v. c #80B999",
"b. c #82B99A",
"n. c #83BB9A",
"m. c #83BB9B",
"M. c #84BB9B",
"N. c #84BC9B",
"B. c #83BB9C",
"V. c #84BB9C",
"C. c #83BC9C",
"Z. c #84BC9C",
"A. c gray66",
"S. c gray100",
"D. c None",
/* pixels */
"K K K K K K K K K K K K K K K K K K K K K K K K K K K K K K K K K K K K K K K K K K K K K K K K K K K K K A.",
"K                                                                                                         S.",
"K                                                                                                         S.",
"K                                                                                                         S.",
"K               m X.Z.Z.m.~     _ 1.Z.B.Z.v     #.d.Z.Z.Z.Q $ ; +.Z.M.Z.v.D     4 p.Z.Z.B.*.              S.",
"K               P z.i 6 0 @.!   a.4.q 8 e g.m   B.U 6 7 9 o   4 M.l 5 7 2     g s.n 6 7 9 -               S.",
"K               I Z.X   * u.&.  s.4.    d n.H   C.C           6 Z.:           S Z.r                       S.",
"K               [ s.  & > u.o.. l.| + & a Z.Z 6 B.l & * .     N C.@ * *       Q j.< & %                   S.",
"K               j <.e.q.e.#.r   J 8.q.q.y.` - o ( 9.q.w.3.o   1 @.0.q.e.^     k  .t.q.r.S                 S.",
"K               c E ,.-.$.t     T ) :.-....   o / O.-.,./     3 Q -.-.>.A       V 2.-.&.` w               S.",
"K               7.)           y Z.L %.G       D b.,           ' 6.                    $ k.I               S.",
"K               u.W           h m.F i.N.b     R k.3           =.>.                    2 V.Y               S.",
"K               f.I           x m.z 1 Z.c.0   ] h.s u p #     e.`             = y u u f h.2               S.",
"K               -.            B }     M Z.5.  { | Z.N.Z.9.    =.-           O ;.V.N.N.x.i                 S.",
"K                                                                                                         S.",
"K                                                                                                         S.",
"K                                                                                                         S.",
"A.S.S.S.S.S.S.S.S.S.S.S.S.S.S.S.S.S.S.S.S.S.S.S.S.S.S.S.S.S.S.S.S.S.S.S.S.S.S.S.S.S.S.S.S.S.S.S.S.S.S.S.S.S.",
"D.D.D.D.D.D.D.D.D.D.D.D.D.D.D.D.D.D.D.D.D.D.D.D.D.D.D.D.D.D.D.D.D.D.D.D.D.D.D.D.D.D.D.D.D.D.D.D.D.D.D.D.D.D.",
"D.D.D.D.D.D.D.D.D.D.D.D.D.D.D.D.D.D.D.D.D.D.D.D.D.D.D.D.D.D.D.D.D.D.D.D.D.D.D.D.D.D.D.D.D.D.D.D.D.D.D.D.D.D.",
"D.D.D.D.D.D.D.D.D.D.S.S.S.S.S.S.S.S.S.S.S.S.S.S.S.S.S.S.S.S.S.S.S.S.S.S.S.S.S.S.S.S.S.D.D.D.D.D.D.D.D.D.D.D.",
"D.D.D.D.D.D.D.D.D.D.S.S.S.S.S.S.S.S.S.S.S.S.S.S.S.S.S.S.S.S.S.S.S.S.S.S.S.S.S.S.S.S.S.  D.D.D.D.D.D.D.D.D.D.",
"D.D.D.D.D.D.D.D.D.D.S.S.S.S.S.S.S.S.S.S.S.S.S.S.S.S.S.S.S.S.S.S.S.S.S.S.S.S.S.S.S.S.S.    D.D.D.D.D.D.D.D.D.",
"D.D.D.D.D.D.D.D.D.D.S.S.S.S.S.S.S.S.S.S.S.S.S.S.S.S.S.S.S.S.S.S.S.S.S.S.S.S.S.S.S.S.S.      D.D.D.D.D.D.D.D.",
"D.D.D.D.D.D.D.D.D.D.S.S.S.S.S.S.S.S.S.S.S.S.S.S.S.S.S.S.S.S.S.S.S.S.S.S.S.S.S.S.S.S.S.      K D.D.D.D.D.D.D.",
"D.D.D.D.D.D.D.D.D.D.S.S.S.S.S.S.S.S.S.S.S.S.S.S.S.S.S.S.S.S.S.S.S.S.S.S.S.S.S.S.S.S.S.      K K D.D.D.D.D.D.",
"D.D.D.D.D.D.D.D.D.D.S.S.S.S.S.S.S.S.S.S.S.S.S.S.S.S.S.S.S.S.S.S.S.S.S.S.S.S.S.S.S.S.S.      K K K D.D.D.D.D.",
"D.D.D.D.D.D.D.D.D.D.S.S.S.S.S.S.S.S.S.S.S.S.S.S.S.S.S.S.S.S.S.S.S.S.S.S.S.S.S.S.S.S.S.      K K K K D.D.D.D.",
"D.D.D.D.D.D.D.D.D.D.S.S.S.S.S.S.S.S.S.S.S.S.S.S.S.S.S.S.S.S.S.S.S.S.S.S.S.S.S.S.S.S.S.      K K K K D.D.D.D.",
"D.D.D.D.D.D.D.D.D.D.S.S.S.S.S.S.S.S.S.S.S.S.S.S.S.S.S.S.S.S.S.S.S.S.S.S.S.S.S.S.S.S.S.      K K K K D.D.D.D.",
"D.D.D.D.D.D.D.D.D.D.S.S.S.S.S.S.S.S.S.S.S.S.S.S.S.S.S.S.S.S.S.S.S.S.S.S.S.S.S.S.S.S.S.      K K K K D.D.D.D.",
"D.D.D.D.D.D.D.D.D.D.S.S.S.S.S.S.S.S.S.S.S.S.S.S.S.S.S.S.S.S.S.S.S.S.S.S.S.S.S.S.S.S.S.      K K K K D.D.D.D.",
"D.D.D.D.D.D.D.D.D.D.S.S.S.S.S.S.S.S.S.S.S.S.S.S.S.S.S.S.S.S.S.S.S.S.S.S.S.S.S.S.S.S.S.      K K K K D.D.D.D.",
"D.D.D.D.D.D.D.D.D.D.S.S.S.S.S.S.S.S.S.S.S.S.S.S.S.S.S.S.S.S.S.S.S.S.S.S.S.S.S.S.S.S.S.      K K K K D.D.D.D.",
"D.D.D.D.D.D.D.D.D.D.S.S.S.S.S.S.S.S.S.S.S.S.S.S.S.S.S.S.S.S.S.S.S.S.S.S.S.S.S.S.S.S.S.      K K K K D.D.D.D.",
"D.D.D.D.D.D.D.D.D.D.S.S.S.S.S.S.S.S.S.S.S.S.S.S.S.S.S.S.S.S.S.S.S.S.S.S.S.S.S.S.S.S.S.      K K K K D.D.D.D.",
"D.D.D.D.D.D.D.D.D.D.S.S.S.S.S.S.S.S.S.S.S.S.S.S.S.S.S.S.S.S.S.S.S.S.S.S.S.S.S.S.S.S.S.      K K K K D.D.D.D.",
"D.D.D.D.D.D.D.D.D.D.S.S.S.S.S.S.S.S.S.S.S.S.S.S.S.S.S.S.S.S.S.S.S.S.S.S.S.S.S.S.S.S.S.      K K K K D.D.D.D.",
"D.D.D.D.D.D.D.D.D.D.S.S.S.S.S.S.S.S.S.S.S.S.S.S.S.S.S.S.S.S.S.S.S.S.S.S.S.S.S.S.S.S.S.      K K K K D.D.D.D.",
"D.D.D.D.D.D.D.D.D.D.S.S.S.S.S.S.S.S.S.S.S.S.S.S.S.S.S.S.S.S.S.S.S.S.S.S.S.S.S.S.S.S.S.      K K K K D.D.D.D.",
"D.D.D.D.D.D.D.D.D.D.S.S.S.S.S.S.S.S.S.S.S.S.S.S.S.S.S.S.S.S.S.S.S.S.S.S.S.S.S.S.S.S.S.      K K K K D.D.D.D.",
"D.D.D.D.D.D.D.D.D.D.S.S.S.S.S.S.S.S.S.S.S.S.S.S.S.S.S.S.S.S.S.S.S.S.S.S.S.S.S.S.S.S.S.      K K K K D.D.D.D.",
"D.D.D.D.D.D.D.D.D.D.S.S.S.S.S.S.S.S.S.S.S.S.S.S.S.S.S.S.S.S.S.S.S.S.S.S.S.S.S.S.S.S.S.      K K K K D.D.D.D.",
"D.D.D.D.D.D.D.D.D.D.S.S.S.S.S.S.S.S.S.S.S.S.S.S.S.S.S.S.S.S.S.S.S.S.S.S.S.S.S.S.S.S.S.      K K K K D.D.D.D.",
"D.D.D.D.D.D.D.D.D.D.S.S.S.S.S.S.S.S.S.S.S.S.S.S.S.S.S.S.S.S.S.S.S.S.S.S.S.S.S.S.S.S.S.      K K K K D.D.D.D.",
"D.D.D.D.D.D.D.D.D.D.S.S.S.S.S.S.S.S.S.S.S.S.S.S.S.S.S.S.S.S.S.S.S.S.S.S.S.S.S.S.S.S.S.      K K K K D.D.D.D.",
"D.D.D.D.D.D.D.D.D.D.S.S.S.S.S.S.S.S.S.S.S.S.S.S.S.S.S.S.S.S.S.S.S.S.S.S.S.S.S.S.S.S.S.      K K K K D.D.D.D.",
"D.D.D.D.D.D.D.D.D.S.S.S.S.S.S.S.S.S.S.S.S.S.S.S.S.S.S.S.S.S.S.S.S.S.S.S.S.S.S.S.S.S.S.      K K K K D.D.D.D.",
"D.D.D.D.D.D.D.D.D.S.S.S.S.S.S.S.S.S.S.S.S.S.S.S.S.S.S.S.S.S.S.S.S.S.S.S.S.S.S.S.S.S.S.      K K K K D.D.D.D.",
"D.D.D.D.D.D.D.D.D.S.S.S.S.S.S.S.S.S.S.S.S.S.S.S.S.S.S.S.S.S.S.S.S.S.S.S.S.S.S.S.S.S.K       K K K K D.D.D.D.",
"D.D.D.D.D.D.D.D.S.S.S.S.S.S.S.S.S.S.S.S.S.S.S.S.S.S.S.S.S.S.S.S.S.S.S.S.S.S.S.S.S.S.K       K K K K D.D.D.D.",
"D.D.D.D.D.D.D.S.S.S.S.S.S.S.S.S.S.S.S.S.S.S.S.S.S.S.S.S.S.S.S.S.S.S.S.S.S.S.S.S.S.K K       K K K K D.D.D.D.",
"D.D.D.D.D.D.D.D.D.D.K K K K K K K K K K K K K K K K K K K K K K K K K K K K K K K K K       K K K K D.D.D.D.",
"D.D.D.D.D.D.D.D.D.D.A.A.A.A.A.A.A.A.A.A.A.A.A.A.A.A.A.A.A.A.A.A.A.A.A.A.A.A.A.A.A.A.A.      K K K K D.D.D.D.",
"D.D.D.D.D.D.D.D.D.D.                                                                        K K K K D.D.D.D.",
"D.D.D.D.D.D.D.D.D.D.D.                                                                      K K K K D.D.D.D.",
"D.D.D.D.D.D.D.D.D.D.D.D.K K K K K K K K K K K K K K K K K K K K K K K K K K K K K K K K K K K K K K D.D.D.D."
};
