/* XPM */
static char *clip[] = {
/* columns rows colors chars-per-pixel */
"64 63 148 2 ",
"   c #020202",
".  c #080705",
"X  c #090906",
"o  c #070708",
"O  c #0C0C0A",
"+  c #100E0C",
"@  c #0E100D",
"#  c #12110E",
"$  c #19120F",
"%  c #151413",
"&  c #191614",
"*  c #171816",
"=  c #1A1915",
"-  c #1C1C1B",
";  c #221D17",
":  c #211E1A",
">  c #1F201C",
",  c #24221D",
"<  c #2A261E",
"1  c #252523",
"2  c #2B2722",
"3  c #272824",
"4  c #2B2A26",
"5  c #2D2D2B",
"6  c #302C27",
"7  c #312E2B",
"8  c #392F2B",
"9  c #2F312D",
"0  c #32312E",
"q  c #3A342E",
"w  c #2F3130",
"e  c #343432",
"r  c #393734",
"t  c #363936",
"y  c #3A3935",
"u  c #37383A",
"i  c #3C3C3A",
"p  c #423F37",
"a  c #403E3C",
"s  c #3F403D",
"d  c #42413D",
"f  c #4C453E",
"g  c #3F3F41",
"h  c #413F43",
"j  c #444442",
"k  c #494543",
"l  c #4A4946",
"z  c #4D4D4B",
"x  c #504941",
"c  c #534E49",
"v  c #53514C",
"b  c #58534C",
"n  c #545350",
"m  c #595652",
"M  c #5A5A55",
"N  c #5C5B59",
"B  c #60564B",
"V  c #635C55",
"C  c #645F59",
"Z  c #65615B",
"A  c #6B635C",
"S  c #656565",
"D  c #686763",
"F  c #6D6965",
"G  c #6E6C6A",
"H  c #736C63",
"J  c #726D69",
"K  c #787067",
"L  c #74726C",
"P  c #7B746C",
"I  c #737370",
"U  c #7E7A74",
"Y  c #7F7E7C",
"T  c #817B74",
"R  c #817E7A",
"E  c #84827D",
"W  c #8B827B",
"Q  c #92867F",
"!  c #93897C",
"~  c #858481",
"^  c #8C8781",
"/  c #8C8A84",
"(  c #8E8E88",
")  c #938C84",
"_  c #938F89",
"`  c #9A9287",
"'  c #94928D",
"]  c #99928A",
"[  c #969592",
"{  c #999692",
"}  c #9D9B95",
"|  c #9D9D9B",
" . c #A0958C",
".. c #A19791",
"X. c #A39B94",
"o. c #A39F99",
"O. c #ABA396",
"+. c #A4A19B",
"@. c #AAA49C",
"#. c #AFA99D",
"$. c #B0A79F",
"%. c #A4A3A1",
"&. c #AAA6A2",
"*. c #ACAAA5",
"=. c #AFABA8",
"-. c #B2ACA4",
";. c #B3AEAA",
":. c #BAB1A3",
">. c #B5B2AC",
",. c #BAB3AC",
"<. c #B9B8AE",
"1. c #B4B3B1",
"2. c #BAB5B1",
"3. c #BDB9B4",
"4. c #C2BAAE",
"5. c #C1BDB5",
"6. c #C2BDB9",
"7. c #C2C0B7",
"8. c #CEC6B6",
"9. c #C4C1BB",
"0. c #CAC4BD",
"q. c gray77",
"w. c #C9C6C0",
"e. c #CCC9C3",
"r. c #CFCDCC",
"t. c #D2CBC4",
"y. c #D1CECA",
"u. c #D9D3C7",
"i. c #D5D1CC",
"p. c #DAD5CB",
"a. c #DCDBCE",
"s. c #D2D2D2",
"d. c #D9D6D1",
"f. c #DEDAD5",
"g. c #DFDDDA",
"h. c #E3DDD5",
"j. c #E0DDD8",
"k. c #E3E1DB",
"l. c #E8E6DF",
"z. c #EEE9E3",
"x. c #EEEDEB",
"c. c #F1ECE4",
"v. c #F2EDE9",
"b. c #F2F3EE",
"n. c gray97",
"m. c #F8F6F5",
"M. c #FAF9F5",
"N. c None",
/* pixels */
"N.N.N.N.N.N.N.N.N.N.N.N.N.N.N.N.N.N.N.N.N.N.N.N.N.N.N.N.N.N.N.N.N.N.N.N.N.N.N.N.N.N.N.N.N.N.N.N.N.N.N.N.N.N.N.N.N.N.N.N.N.N.N.N.",
"N.N.N.N.N.N.N.N.N.N.N.N.N.N.r.q.N.N.N.N.N.N.N.N.N.N.N.N.N.N.N.N.N.N.N.N.N.N.N.N.N.N.N.N.N.N.N.N.N.N.N.N.N.N.N.N.N.N.N.N.N.N.N.N.",
"N.N.N.N.N.N.N.N.N.N.N.N.N.L i.f.{ V N.N.N.N.N.N.N.N.N.N.N.N.N.N.N.N.N.N.N.N.N.N.N.N.N.N.N.N.N.N.N.N.N.N.N.N.N.N.N.N.N.N.N.N.N.N.",
"N.N.N.N.N.N.N.N.N.N.c C ,.,.H Z X...U v N.N.N.N.N.N.N.N.N.N.N.N.N.N.N.N.N.N.N.N.N.N.N.N.N.N.N.N.N.N.N.N.N.N.N.N.N.N.N.N.N.N.N.N.",
"N.N.N.N.N.N.N.N.N.>.e.c.8.:.9.9.t.j.t.e.N.N.N.N.N.N.N.N.N.N.N.N.N.N.N.N.N.N.N.N.N.N.N.N.N.N.N.N.N.N.N.N.N.N.N.N.N.N.N.N.N.N.N.N.",
"N.N.N.N.N.N.N.-.0.v.l.u.,.W N.N.v n.! @.2.N.N.N.N.N.N.N.N.N.N.N.N.N.N.N.N.N.N.N.N.N.N.N.N.N.N.N.N.N.N.N.N.N.N.N.N.N.N.N.N.N.N.N.",
"N.N.N.N.N.N.>.h.M.a.9.D N.N.N.N.N.s. .R 6.N.N.N.N.N.N.N.N.N.N.N.N.N.N.N.N.N.N.N.N.N.N.N.N.N.N.N.N.N.N.N.N.N.N.N.N.N.N.N.N.N.N.N.",
"N.N.N.N.N.3.u.m.i.a.N.N.N.N.N.N.N.1.,.Q -.N.N.N.N.N.N.N.N.N.N.N.N.N.N.N.N.N.N.N.N.N.N.N.N.N.N.N.N.N.N.N.N.N.N.N.N.N.N.N.N.N.N.N.",
"N.N.N.N.t.h.v.t.i.N.N.N.N.N.N.N.N.o.d.Q ,.N.N.N.N.N.N.N.N.N.N.N.N.N.N.N.N.N.N.N.N.N.N.N.N.N.N.N.N.N.N.N.N.N.N.N.N.N.N.N.N.N.N.N.",
"N.N.N.N.0.p.,.i.G N.N.N.N.N.N.N.N.N.b.] #.E N.N.N.N.N.N.N.N.N.N.N.N.N.N.N.N.N.N.N.{ ;.( N.N.N.N.N.N.N.N.N.N.N.N.N.N.N.N.N.N.N.N.",
"N.N.N.N.@.O.0.z N.N.N.N.N.N.N.N.N.N.k.7.O.{ N.N.N.N.N.N.N.N.N.N.N.N.N.N.N.N.N.N.o.2.[ &.7 N.N.N.N.N.N.N.N.N.N.N.N.N.N.N.N.N.N.N.",
"N.N.N._ X.) 2.N.N.N.N.N.N.N.N.N.N.N.I k.:.5.N.N.N.N.N.N.N.N.N.N.N.N.N.N.N.N.N.N.>./ 3.5 4 e N.N.N.N.N.N.N.N.N.N.N.N.N.N.N.N.N.N.",
"N.N.1.g.K ` D N.N.N.N.N.N.N.N.N.N.N.N.` ! t.N.N.N.N.N.N.N.N.N.N.N.N.N.N.N.N.N.3.) >.6 : h h 5 N.N.N.N.N.N.N.N.N.N.N.N.N.N.N.N.N.",
"N.N.1.j.V &.N.N.N.N.N.N.N.N.N.N.N.N.N.N.H 0.] N.N.N.N.N.N.N.N.N.N.N.N.N.N.R 3.' &.4 ; y p p h 3 N.N.N.N.N.N.N.N.N.N.N.N.N.N.N.N.",
"N.N.N.l.B 5.N.N.N.N.N.N.N.N.N.N.N.N.N.N.N.W p.` m N.N.N.N.N.N.N.N.N.N.N.N.1.{ [ y : y i a e y y 3 N.N.N.N.N.N.N.N.N.N.N.N.N.N.N.",
"N.N.N.&.H 9.N.N.N.N.N.N.N.N.N.N.N.N.N.N.N.N.W t.$.T N.N.N.N.N.N.N.N.N.N.=./ o.i > i y y 8 e e r t 5 N.N.N.N.N.N.N.N.N.N.N.N.N.N.",
"N.N.N.N.P h.f.x.k.r.N.N.N.N.N.N.N.N.N.N.N.N.N.Z <.t.P T N.N.N.N.N.N.W %.F =.u * t i e e 0 e e e u t : N.N.N.N.N.N.N.N.N.N.N.N.N.",
"N.N.N.N.J 3.Z F W -.f.m.x.N.N.N.N.N.N.N.N.N.N.N.N.+.c.) U N.N.N.N.N.1.G ,.< = h u y e e 7 7 e t e y i 3 N.N.N.N.N.N.N.N.N.N.N.N.",
"N.N.N.N.l t.$.T K T K W i.x.N.N.N.N.N.N.N.N.N.N.N.N.y i.>.E k N.N.;.Y ' 8 & a y t w e 7 7 9 5 e e e i i N.N.N.N.N.N.N.N.N.N.N.N.",
"N.N.N.N.N.F w.0.<.-.#.O.X.2.;.R N.N.N.N.N.N.N.N.N.N.N.N._ 6.) b R I ^ h * i u r e 7 5 9 0 e e e e e e i t 5 N.N.N.N.N.N.N.N.N.N.",
"N.N.N.N.N.N.N.N.l V L } @.,.w.&.N.N.N.N.N.N.N.N.N.N.N.N.N.b O.4.H 2 p = u u w e 7 w w 7 9 e e e e e e y i i 3 N.N.N.N.N.N.N.N.N.",
"N.N.N.N.N.N.N.N.N.N.N.N.N.N.G f.' N.N.N.N.N.N.N.N.N.N.N.N.d H V 6.;.; + e u w 0 5 5 w w e e e e w e t e r a d N.N.N.N.N.N.N.N.N.",
"N.N.N.N.N.N.N.N.N.N.N.N.N.N.N.T d.N.N.N.N.N.N.N.N.N.N.N.N.' U V & ^ j.m o = 4 w 5 5 0 0 9 e e w e e e e r r k j N.N.N.N.N.N.N.N.",
"N.N.N.N.N.N.N.N.N.N.N.N.N.N.N.N.-.i.N.N.N.N.N.N.N.N.N.N.[ R L > # 2 n 0.o.w O - 5 5 w 0 e e e e e e t y y d d k j N.N.N.N.N.N.N.",
"N.N.N.N.N.N.N.N.N.N.N.N.N.N.N.N.k e.-.N.N.N.N.N.N.N.N.%./ E 0 * r e 1 7 ~ w.~ 1 X 1 5 9 e e e e t y y y y i g g 5 & N.N.N.N.N.N.",
"N.N.N.N.N.N.N.N.N.N.N.N.N.N.N.N.N.C h.' N.N.N.N.N.N.1.( / y = q i w e 4 1 k X.6.V   % 3 w 9 e 0 e e y y y a u 1 # @ - S N.N.N.N.",
"N.N.N.N.N.N.N.N.N.N.N.N.N.N.N.N.N.N.E d.N.N.N.N.N.1./ +.p $ 9 s e w 5 3 5 4 6 F y.3.:   - e e e q q y i h i > # O @ %.z u N.N.N.",
"N.N.N.N.N.N.N.N.N.N.N.N.N.N.N.N.N.N.N.=.=.N.N.N.+.W | 5 + d y t w 7 w 0 5 3 5 5 r ) k.P # # 7 e y t h i g 1 + o o | S 1 g N.N.N.",
"N.N.N.N.N.N.N.N.N.N.N.N.N.N.N.N.N.N.N.v 3.J C W ( / y # s y e 0 e 5 e 0 w w w 5 4 , f <.:.d + - 5 u i i - o   % %.N - g % N.N.N.",
"N.N.N.N.N.N.N.N.N.N.N.N.N.N.N.N.N.N.N.N./ 5.A ^ U y = t t q 9 9 w 7 e w w 8 w 7 7 5 , < A ,.} y O 1 u 1 o   - [ N 1 u - N.N.N.N.",
"N.N.N.N.N.N.N.N.N.N.N.N.N.N.N.N.N.N.N.N.4 ,...x 0 % 0 q 0 e 9 9 e e e e e 8 8 e e 9 9 9 , e L 5.' -       * [ M w u O N.N.N.N.N.",
"N.N.N.N.N.N.N.N.N.N.N.N.N.N.N.N.N.N.N.N.&.b h.b @ 9 0 0 0 0 9 9 e w 0 e e e e e e e w 9 q 9 6 8 ^ i.n   # | S w 5 O N.N.N.N.N.N.",
"N.N.N.N.N.N.N.N.N.N.N.N.N.N.N.N.N.N.N.2.o.C b h.2 4 7 7 5 5 9 0 w 7 w e e e y e r e t e e e e e $ e 6.2.v N e 7 o N.N.N.N.N.N.N.",
"N.N.N.N.N.N.N.N.N.N.N.N.N.N.N.N.N.N.e.=./ k # { +., 6 4 3 7 9 9 e w w e e e e t e t e y r r t y y 5 y U l 7 8 O N.N.N.N.N.N.N.N.",
"N.N.N.N.N.N.N.N.N.N.N.N.N.N.N.N.N.i.=.( z % 2 q 3.C : 6 5 9 9 e 7 e e e e e e y r e t y y y y q u i 8 N.4 0 @ N.N.N.N.N.N.N.N.N.",
"N.N.N.N.N.N.N.N.N.N.N.N.N.N.N.N.3.{ [ z & 4 e ; Z 9.4 5 3 7 0 0 e e e e t e e y t y y y i u u a i i 7 N.N.N.N.N.N.N.N.N.N.N.N.N.",
"N.N.N.N.N.N.N.N.N.N.N.N.N.N.N.2.( *.z o 7 e 7 3 = +.X.; 4 5 9 0 0 e r r e e u y y y i i i e * , d t = N.N.N.N.N.N.N.N.N.N.N.N.N.",
"N.N.N.N.N.N.N.N.N.N.N.N.N.N.&.} | j X e i 7 w 4 = q j.V , 6 9 9 e u e r t r y y y y y i e #     1 z I N.N.N.N.N.N.N.N.N.N.N.N.N.",
"N.N.N.N.N.N.N.N.N.N.N.N.N.>.+.( k # e e e 6 5 4 4 $ A f.y , 7 5 e e e u y r y y y y i u #     O e I t N.N.N.N.N.N.N.N.N.N.N.N.N.",
"N.N.N.N.N.N.N.N.N.N.N.N.<.} ( j % 0 t e w 6 5 5 4 : = _ 0.7 4 7 e y r r y y y u u i t #       4 n 7 N.N.N.N.N.N.N.N.N.N.N.N.N.N.",
"N.N.N.N.N.N.N.N.N.N.N.9.' [ f * 7 t e 0 0 7 7 5 5 3 * 4 >.W = 6 0 r r u y y y y i e &       4 z 3 N.N.N.N.N.N.N.N.N.N.N.N.N.N.N.",
"N.N.N.N.N.N.N.N.N.N.N.[ +.d @ 0 t 7 e 0 7 7 7 5 9 9 5 @ Z 7.f 6 0 0 e e y y i i t %     O 3 z 4 N.N.N.N.N.N.N.N.N.N.N.N.N.N.N.N.",
"N.N.N.N.N.N.N.N.N.N.N.' n X 0 t e e e 9 7 5 w w 9 5 9 4 $ { ..2 7 e w q y y i u *     O 3 z i N.N.N.N.N.N.N.N.N.N.N.N.N.N.N.N.N.",
"N.N.N.N.N.N.N.N.N.N.N.N.. l s q e 0 5 5 w 7 w e e e e 7 , 8 0.m 3 7 7 t y i t &       , j y N.N.N.N.N.N.N.N.N.N.N.N.N.N.N.N.N.N.",
"N.N.N.N.N.N.N.N.N.N.N.N.N.e y e e 7 7 7 7 w e w e e 0 9 6 = V y.: 7 7 e y t 5     . 3 z t N.N.N.N.N.N.N.N.N.N.N.N.N.N.N.N.N.N.N.",
"N.N.N.N.N.N.N.N.N.N.N.N.N.N.7 h e e w w w 7 0 e 0 t e e q 2 > } &.# q e t t 3     7 z 3 N.N.N.N.N.N.N.N.N.N.N.N.N.N.N.N.N.N.N.N.",
"N.N.N.N.N.N.N.N.N.N.N.N.N.N.N.- t w 7 e e e e e 0 t e 0 9 6 = 6 a.N : t i i i , 7 N 1 N.N.N.N.N.N.N.N.N.N.N.N.N.N.N.N.N.N.N.N.N.",
"N.N.N.N.N.N.N.N.N.N.N.N.N.N.N.N.# e u e 0 e e 0 t 0 t t 0 9 5 = m y.6 8 i d a j Y e N.N.N.N.N.N.N.N.N.N.N.N.N.N.N.N.N.N.N.N.N.N.",
"N.N.N.N.N.N.N.N.N.N.N.N.N.N.N.N.N.> e u e e e e e e e e e w t 4 O E &.7 i t , l t N.N.N.N.N.N.N.N.N.N.N.N.N.N.N.N.N.N.N.N.N.N.N.",
"N.N.N.N.N.N.N.N.N.N.N.N.N.N.N.N.N.N.N.5 y t u r e e e e t t t 3   , 1.E 4 # o N.N.N.N.N.N.N.N.N.N.N.N.N.N.N.N.N.N.N.N.N.N.N.N.N.",
"N.N.N.N.N.N.N.N.N.N.N.N.N.N.N.N.N.N.N.N.5 i i u 8 r y y i i 4 O     z M N.N.N.N.N.N.N.N.N.N.N.N.N.N.N.N.N.N.N.N.N.N.N.N.N.N.N.N.",
"N.N.N.N.N.N.N.N.N.N.N.N.N.N.N.N.N.N.N.N.N.e i i u y u u t e #     v v , N.N.N.N.N.N.N.N.N.N.N.N.N.N.N.N.N.N.N.N.N.N.N.N.N.N.N.N.",
"N.N.N.N.N.N.N.N.N.N.N.N.N.N.N.N.N.N.N.N.N.N.e y u i i i 7 &     M ~ 3 t % N.N.N.N.N.N.N.N.N.N.N.N.N.N.N.N.N.N.N.N.N.N.N.N.N.N.N.",
"N.N.N.N.N.N.N.N.N.N.N.N.N.N.N.N.N.N.N.N.N.N.N.3 a h h y O O   N G 3 e # N.N.N.N.N.N.N.N.N.N.N.N.N.N.N.N.N.N.N.N.N.N.N.N.N.N.N.N.",
"N.N.N.N.N.N.N.N.N.N.N.N.N.N.N.N.N.N.N.N.N.N.N.N.5 l u # O o N M 3 y * N.N.N.N.N.N.N.N.N.N.N.N.N.N.N.N.N.N.N.N.N.N.N.N.N.N.N.N.N.",
"N.N.N.N.N.N.N.N.N.N.N.N.N.N.N.N.N.N.N.N.N.N.N.N.N.4 $ %   j n 5 i O N.N.N.N.N.N.N.N.N.N.N.N.N.N.N.N.N.N.N.N.N.N.N.N.N.N.N.N.N.N.",
"N.N.N.N.N.N.N.N.N.N.N.N.N.N.N.N.N.N.N.N.N.N.N.N.N.N.  o t G 3 i * N.N.N.N.N.N.N.N.N.N.N.N.N.N.N.N.N.N.N.N.N.N.N.N.N.N.N.N.N.N.N.",
"N.N.N.N.N.N.N.N.N.N.N.N.N.N.N.N.N.N.N.N.N.N.N.N.N.N.N.k ~ > y - % N.N.N.N.N.N.N.N.N.N.N.N.N.N.N.N.N.N.N.N.N.N.N.N.N.N.N.N.N.N.N.",
"N.N.N.N.N.N.N.N.N.N.N.N.N.N.N.N.N.N.N.N.N.N.N.N.N.N.N.N.3 i 3 N.N.N.N.N.N.N.N.N.N.N.N.N.N.N.N.N.N.N.N.N.N.N.N.N.N.N.N.N.N.N.N.N.",
"N.N.N.N.N.N.N.N.N.N.N.N.N.N.N.N.N.N.N.N.N.N.N.N.N.N.N.N.N.1 N.N.N.N.N.N.N.N.N.N.N.N.N.N.N.N.N.N.N.N.N.N.N.N.N.N.N.N.N.N.N.N.N.N.",
"N.N.N.N.N.N.N.N.N.N.N.N.N.N.N.N.N.N.N.N.N.N.N.N.N.N.N.N.N.N.N.N.N.N.N.N.N.N.N.N.N.N.N.N.N.N.N.N.N.N.N.N.N.N.N.N.N.N.N.N.N.N.N.N.",
"N.N.N.N.N.N.N.N.N.N.N.N.N.N.N.N.N.N.N.N.N.N.N.N.N.N.N.N.N.N.N.N.N.N.N.N.N.N.N.N.N.N.N.N.N.N.N.N.N.N.N.N.N.N.N.N.N.N.N.N.N.N.N.N.",
"N.N.N.N.N.N.N.N.N.N.N.N.N.N.N.N.N.N.N.N.N.N.N.N.N.N.N.N.N.N.N.N.N.N.N.N.N.N.N.N.N.N.N.N.N.N.N.N.N.N.N.N.N.N.N.N.N.N.N.N.N.N.N.N."
};
