/* XPM */
static char *GNUstep[] = {
/* columns rows colors chars-per-pixel */
"64 64 63 1 ",
"  c gray26",
". c #4E4E4E",
"X c #535353",
"o c gray33",
"O c #555555",
"+ c #565656",
"@ c gray34",
"# c #585858",
"$ c gray35",
"% c #5A5A5A",
"& c #5B5B5B",
"* c gray36",
"= c #5D5D5D",
"- c gray37",
"; c #5F5F5F",
": c #606060",
"> c gray38",
", c #626262",
"< c gray39",
"1 c #646464",
"2 c #656565",
"3 c gray40",
"4 c #676767",
"5 c #686868",
"6 c DimGray",
"7 c #6A6A6A",
"8 c gray42",
"9 c #6C6C6C",
"0 c #6D6D6D",
"q c gray43",
"w c #6F6F6F",
"e c gray44",
"r c #717171",
"t c #727272",
"y c gray45",
"u c #747474",
"i c gray46",
"p c #767676",
"a c #777777",
"s c gray47",
"d c #797979",
"f c gray48",
"g c #7B7B7B",
"h c #7C7C7C",
"j c gray49",
"k c #7E7E7E",
"l c gray50",
"z c #808080",
"x c #818181",
"c c gray51",
"v c #838383",
"b c #848484",
"n c gray52",
"m c #868686",
"M c gray53",
"N c #888888",
"B c #898989",
"V c gray54",
"C c #8B8B8B",
"Z c #8D8D8D",
"A c #8E8E8E",
"S c gray56",
"D c None",
/* pixels */
"DDDDDDDDDDDDDDDDDDDDDDDDDDDDDDDDDDDDDDDDDDDDDDDDDDDDDDDDDDDDDDDD",
"DDDDDDDDDDDDDDDDDDDDDDDDDDDDDDDDDDDDDDDDDDDDDDDDDDDDDDDDDDDDDDDD",
"DDDDDDDDDDDDDDDDDDDDDDDDDDDDDDDDDDDDDDDDDDDDDDDDDDDDDDDDDDDDDDDD",
"DDDDDDDDDDDDDDDDDDDDDDDDDDDDDDDDDDDDDDDDDDDDDDDDDDDDDDDDDDDDDDDD",
"DDDDDDDDDDDDDDDDDDDDDDDDDDDDDDDDDDDDDDDDDDDDDDDDDDDDDDDDDDDDDDDD",
"DDDDDDDDDDDDDDDDDDDDDDDDDDDDDDDDDDDDDDDDDDDDDDDDDDDDDDDDDDDDDDDD",
"DDDDDDDDDDDDDDDDDDDDDDDDDDDDDDDDDDDDDDDDDDDDDDDDDDDDDDDDDDDDDDDD",
"DDDDDDDDDDDDDDDDDDDDDDDDDDDDDDDDDDDDDDDDDDDDDDDDDDDDDDDDDDDDDDDD",
"DDDDDDDDDDDDDDDDDDDDDDDDDDDDDDDDDDDDDDDDDDDDDDDDDDDDDDDDDDDDDDDD",
"DDDDDDDDDDDDDDDDDDDDDDDDDDDDDDDDDDDDDDDDDDDDDDDDDDDDDDDDDDDDDDDD",
"DDDDDDDDDDDDDDDDDDDDDDDDDDDDDDDDDDDDDDDDDDDDDDDDDDDDDDDDDDDDDDDD",
"DDDDDDDDDDDDDDDDDDDDDDDDDDDDDDDDDDDDDDDDDDDDDDDDDDDDDDDDDDDDDDDD",
"DDDDDDDDDDDDDDDDDDDDDDDDDDDDDDDDDDDDDDDDDDDDDDDDDDDDDDDDDDDDDDDD",
"DDDDDDDDDDDDDDDDDDDDDDDDDDDDDDDDDDDDDDDDDDDDDDDDDDDDDDDDDDDDDDDD",
"DDDDDDDDDDDDDDDDDDDDDDDDDDDDDDDDDDDDDDDDDDDDDDDDDDDDDDDDDDDDDDDD",
"DDDDDDDDDDDDDDDDDDDDDDDDDDDDDDDDDDDDDDDDDDDDDDDDDDDDDDDDDDDDDDDD",
"DDDDDDDDDDDDDDDDDDDDDDDDDDDDDDDDDDDDDDDDDDDDDDDDDDDDDDDDDDDDDDDD",
"DDDDDDDDDDDDDDDDDDDDDDDDDDDDDDDDDDDDDDDDDDDDDDDDDDDDDDDDDDDDDDDD",
"DDDDDDDDDDDDDDDDDDDDDDDDDDDDDDDDDDDDDDDDDDDDq1qqDDDDDDDDDDDDDDDD",
"DDDDDDDDDDDDDDDDDDDDDDDDDDDDDDDDDDDDDDDDDDrrq5q5DDDDDDDDDDDDDDDD",
"DDDDDDDDDDDDDDDDDDDDDDDDDDDDDDDDDDDDDDDDDDbrDDD-DDDDDDDDDDDDDDDD",
"DDDDDDDDDDDDDDDDDDDDDDDDDDDDDDDDDDDDDDDDDsVDDDDDDDDDDDDDDDDDDDDD",
"DDDDDDDDDDDDDDDDDDDDDDDDDDDDDDDDDDDD5DDDDjbDDDDDDDDDDDDDDDDDDDDD",
"DDDDDDDDDDDDDDDDDDDDDDDDDDD5DDDDDDp555qqDxxrDq555qDDDDDDDDDDDDDD",
"DDDDDDDDDDDDDDDDDDDDDDDDDD$jDDDDDsr$DD$5jsjrq51>>qbpDDDDDDDDDDDD",
"DDDDDDDDDDDDDDDDDDDDDDDDDDDbVD>DDbqDDDDDpbDDDDDDDDVsDDDDDDDDDDDD",
"DDDDDDDDDDDDDDDDDDDDDDDDDDDsSS5DsbDDDDDD>xpDDDDDDDx5DDDDDDDDDDDD",
"DDDDDDDDDDDDDDDDDDDDDDDDDDDqxVDDqbDDDDDDDjxDDDDDDsr@DDDDDDDDDDDD",
"DDDDDDDDDDDDDDDDDDDDDDDDDDDpqjDD5xDDDDDDDjbrppDDq5-DDDDDDDDDDDDD",
"DDDDDDDDDDDDDDDDDDDDDr555qDDDpjDDpsDDDDDDxxDxsq5>@DDDDDDDDDDDDDD",
"DDDDDDDDDDDDDDDDDDDDsq-$$5jpD5jDD5sDDDDDDxjDpDXDDDDDDDDDDDDDDDDD",
"DDDDDDDDDDDDDDDDDDDDj1DDDDxxDDpjDDqsDDDDDsjDqDDDDDDDDDDDDDDDDDDD",
"DDDDDDDDDDDDDDDDqqDjxDDDDDps>D1jDD1pqDDDrsDj1DDDDDDDDDDDDDDDDDDD",
"DDDDDDDDDDDDDDDDsrDsxDDDD>>15DDpjDDp555qpDpq@DDDDDDDDDDDDDDDDDDD",
"DDDDDDDDDDDDDDDDjqDrbDD>>-XDDDD1sDDDD$qDDpq-DDDDDDDDDDDDDDDDDDDD",
"DDDDDDDDDD.>qDDDxDD>SVr-DDDDqrDD5r1@DDDDD5-DDDDDDDDDDDDDDDDDDDDD",
"DDDDDDDDDDD@15DDVDDDsSDDDDDDj5DDD-5DDDD5>$DDDDDDDDDDDDDDDDDDDDDD",
"DDDDDDDDDDDDD$qbSDDDqxDDDDDDs>DDDDDDDq5>@DDDDDDDDDDDDDDDDDDDDDDD",
"DDDDDDDDDDDDDDDbSsDDDssDDDDprDDDDDDq51$DDDDDDDDDDDDDDDDDDDDDDDDD",
"DDDDDDDDDDDDDDDsbr5rDsbjjsssDDDDD551$DDDDDDDDDDDDDDDDDDDDDDDDDDD",
"DDDDDDDDDDDDDDDsjD-5qDDsbxDDDDr151$DDDDDDDDDDDDDDDDDDDDDDDDDDDDD",
"DDDDDDDDDDDDDDDxrDDD1qqqDDr5155>@DDDDDDDDDDDDDDDDDDDDDDDDDDDDDDD",
"DDDDDDDDDDDDDDDj5DDDD@->511>$$DDDDDDDDDDDDDDDDDDDDDDDDDDDDDDDDDD",
"DDDDDDDDDDDDDDDrDDDDDDDDDDDDDDDDDDDDDDDDDDDDDDDDDDDDDDDDDDDDDDDD",
"DDDDDDDDDDDDDDD-DDDDDDDDDDDDDDDDDDDDDDDDDDDDDDDDDDDDDDDDDDDDDDDD",
"DDDDDDDDDDDDDD DDDDDDDDDDDDDDDDDDDDDDDDDDDDDDDDDDDDDDDDDDDDDDDDD",
"DDDDDDDDDDDDDDDDDDDDDDDDDDDDDDDDDDDDDDDDDDDDDDDDDDDDDDDDDDDDDDDD",
"DDDDDDDDDDDDDDDDDDDDDDDDDDDDDDDDDDDDDDDDDDDDDDDDDDDDDDDDDDDDDDDD",
"DDDDDDDDDDDDDDDDDDDDDDDDDDDDDDDDDDDDDDDDDDDDDDDDDDDDDDDDDDDDDDDD",
"DDDDDDDDDDDDDDDDDDDDDDDDDDDDDDDDDDDDDDDDDDDDDDDDDDDDDDDDDDDDDDDD",
"DDDDDDDDDDDDDDDDDDDDDDDDDDDDDDDDDDDDDDDDDDDDDDDDDDDDDDDDDDDDDDDD",
"DDDDDDDDDDDDDDDDDDDDDDDDDDDDDDDDDDDDDDDDDDDDDDDDDDDDDDDDDDDDDDDD",
"DDDDDDDDDDDDDDDDDDDDDDDDDDDDDDDDDDDDDDDDDDDDDDDDDDDDDDDDDDDDDDDD",
"DDDDDDDDDDDDDDDDDDDDDDDDDDDDDDDDDDDDDDDDDDDDDDDDDDDDDDDDDDDDDDDD",
"DDDDDDDDDDDDDDDDDDDDDDDDDDDDDDDDDDDDDDDDDDDDDDDDDDDDDDDDDDDDDDDD",
"DDDDDDDDDDDDDDDDDDDDDDDDDDDDDDDDDDDDDDDDDDDDDDDDDDDDDDDDDDDDDDDD",
"DDDDDDDDDDDDDDDDDDDDDDDDDDDDDDDDDDDDDDDDDDDDDDDDDDDDDDDDDDDDDDDD",
"DDDDDDDDDDDDDDDDDDDDDDDDDDDDDDDDDDDDDDDDDDDDDDDDDDDDDDDDDDDDDDDD",
"DDDDDDDDDDDDDDDDDDDDDDDDDDDDDDDDDDDDDDDDDDDDDDDDDDDDDDDDDDDDDDDD",
"DDDDDDDDDDDDDDDDDDDDDDDDDDDDDDDDDDDDDDDDDDDDDDDDDDDDDDDDDDDDDDDD",
"DDDDDDDDDDDDDDDDDDDDDDDDDDDDDDDDDDDDDDDDDDDDDDDDDDDDDDDDDDDDDDDD",
"DDDDDDDDDDDDDDDDDDDDDDDDDDDDDDDDDDDDDDDDDDDDDDDDDDDDDDDDDDDDDDDD",
"DDDDDDDDDDDDDDDDDDDDDDDDDDDDDDDDDDDDDDDDDDDDDDDDDDDDDDDDDDDDDDDD",
"DDDDDDDDDDDDDDDDDDDDDDDDDDDDDDDDDDDDDDDDDDDDDDDDDDDDDDDDDDDDDDDD"
};
