/* XPM */
static char * month_xpm[] = {
"22 72 2 1",
" 	c #FFFFFFFFFFFF",
".	c #000000000000",
"                      ",
"         .. .. . ..   ",
"          .  . .  .   ",
"          . . ..  .   ",
"          . .  .      ",
"       .... .   .     ",
"                      ",
"      .. ....  ....   ",
"       .    .  .  .   ",
"       .    .  .  .   ",
"       .    .     .   ",
"       . ..... ....   ",
"                      ",
"    .  . ....  . ..   ",
"     . .    .  .. .   ",
"      .     .  .  .   ",
"       .    .  .  .   ",
"    ....    .  . ..   ",
"                      ",
"    .... .... .. .    ",
"       . .  .  . .    ",
"       . .  . . ..    ",
"       .    . .  .    ",
"       . .... .   .   ",
"                      ",
"      .. .. .  . ..   ",
"       .  . .  .. .   ",
"       . . ..  .  .   ",
"         .  .  .  .   ",
"         .   . . ..   ",
"                      ",
"       ..  .. .. ..   ",
"        .   .  .  .   ",
"        .   .  .  .   ",
"            .  .      ",
"          ...  .      ",
"                      ",
"      .. .    .. ..   ",
"       . ....  .  .   ",
"       .    .  .  .   ",
"            .  .      ",
"         ....  .      ",
"                      ",
"       ... .. .. .    ",
"         .  .  . .    ",
"       ...  . . ..    ",
"       . .  . .  .    ",
"       . .  . .   .   ",
"                      ",
"     . .. .... ....   ",
"     .  . .  . .  .   ",
"     .  . .  . .  .   ",
"     .  .    . .. .   ",
"     .... ....  ...   ",
"                      ",
"      .... .. .. .    ",
"         .  .  . .    ",
"      .  .  . . ..    ",
"      .     . .  .    ",
"      .     . .   .   ",
"                      ",
"      ....  ..   ..   ",
"         .   .    .   ",
"         .   .    .   ",
"         .   .    .   ",
"      .....  . ....   ",
"                      ",
"    . ..  .  . ....   ",
"    .. .   . .   .    ",
"    .  .    .    .    ",
"    .  .     .   .    ",
"    . ..  ....   .    "};
