/* XPM */
static char * tile_xpm[] = {
"64 64 177 2",
"  	c None",
". 	c #E4E0E4",
"+ 	c #E3E0E3",
"@ 	c #E3DFE3",
"# 	c #E2DEE2",
"$ 	c #E2DDE2",
"% 	c #E1DDE1",
"& 	c #E1DEE1",
"* 	c #C5C2C5",
"= 	c #C6C9C9",
"- 	c #C6C9C8",
"; 	c #C6CAC9",
"> 	c #C6CAC8",
", 	c #C7C9C8",
"' 	c #C6C9C7",
") 	c #C7C9C7",
"! 	c #C5C9C7",
"~ 	c #C6CAC7",
"{ 	c #C6CAC6",
"] 	c #C6C9C6",
"^ 	c #C7CAC7",
"/ 	c #C7CAC6",
"( 	c #C6CAC5",
"_ 	c #C7CAC5",
": 	c #C5CAC6",
"< 	c #C7C9C6",
"[ 	c #C5C9C8",
"} 	c #C7CAC8",
"| 	c #C1BEC1",
"1 	c #C8CAC6",
"2 	c #C8C9C6",
"3 	c #C5CAC5",
"4 	c #C0BDC0",
"5 	c #C7C9C9",
"6 	c #C8CAC5",
"7 	c #C7CAC9",
"8 	c #C6CBC6",
"9 	c #C8C9C5",
"0 	c #C9C9C6",
"a 	c #C9CAC6",
"b 	c #C8C9C7",
"c 	c #C7C9C5",
"d 	c #C8CAC7",
"e 	c #C5C9C6",
"f 	c #BFBCBF",
"g 	c #C9CBC6",
"h 	c #C9CAC7",
"i 	c #C9CAC5",
"j 	c #C7CBC6",
"k 	c #CACAC6",
"l 	c #CACBC6",
"m 	c #CACAC7",
"n 	c #BEBBBE",
"o 	c #C8CBC6",
"p 	c #CBCAC6",
"q 	c #CBCBC6",
"r 	c #CACBC7",
"s 	c #CBCBC7",
"t 	c #CBCAC7",
"u 	c #C7CBC7",
"v 	c #C8CBC7",
"w 	c #CAC9C7",
"x 	c #CBC9C7",
"y 	c #C9C9C7",
"z 	c #BDBABD",
"A 	c #CBC9C6",
"B 	c #C8CBC5",
"C 	c #CCCAC7",
"D 	c #CAC9C6",
"E 	c #CCCAC6",
"F 	c #C9CBC7",
"G 	c #CCC9C7",
"H 	c #CBC8C7",
"I 	c #CCC8C6",
"J 	c #CCC8C7",
"K 	c #CBC9C8",
"L 	c #CAC8C8",
"M 	c #CCC9C8",
"N 	c #CCC7C7",
"O 	c #CBC7C7",
"P 	c #CBCAC8",
"Q 	c #BCB9BC",
"R 	c #CCC8C8",
"S 	c #CBC8C8",
"T 	c #CCC7C8",
"U 	c #CCC8C9",
"V 	c #CDC8C8",
"W 	c #CBCBC8",
"X 	c #CDC8C9",
"Y 	c #CDC9C9",
"Z 	c #CCCAC8",
"` 	c #CDC9C8",
" .	c #CBCCC7",
"..	c #BBB8BB",
"+.	c #CDC7C8",
"@.	c #CEC8C9",
"#.	c #CDC8CA",
"$.	c #CDC9CA",
"%.	c #CDC8C7",
"&.	c #CACBC8",
"*.	c #CCC9C9",
"=.	c #CDC8CB",
"-.	c #CEC9CA",
";.	c #CEC8CA",
">.	c #CCCBC7",
",.	c #CEC9CB",
"'.	c #CDC9CB",
").	c #CDCACC",
"!.	c #CDC9CC",
"~.	c #CEC9CC",
"{.	c #CDC8CC",
"].	c #CEC9CD",
"^.	c #CDC9CD",
"/.	c #CDCACB",
"(.	c #CCCBC6",
"_.	c #CFC9CC",
":.	c #CECACD",
"<.	c #CFCACE",
"[.	c #CECACE",
"}.	c #CDCACD",
"|.	c #CECACC",
"1.	c #CEC8CB",
"2.	c #CFC9CD",
"3.	c #CECBCD",
"4.	c #C9CBC8",
"5.	c #CCCCC7",
"6.	c #CCCBC8",
"7.	c #CECACB",
"8.	c #CFC9CE",
"9.	c #CFCBCF",
"0.	c #CEC9CE",
"a.	c #CCC9CA",
"b.	c #CDC9C7",
"c.	c #CCCACB",
"d.	c #CFCACD",
"e.	c #CFCBCE",
"f.	c #CDCAC8",
"g.	c #CEC9C9",
"h.	c #CCCAC9",
"i.	c #CFCACC",
"j.	c #CACCC6",
"k.	c #CDCACA",
"l.	c #CFC9CB",
"m.	c #C9CAC8",
"n.	c #CCCCC8",
"o.	c #C8CBC8",
"p.	c #C9CCC7",
"q.	c #CFCACA",
"r.	c #CDCAC9",
"s.	c #CEC9C8",
"t.	c #CDCAC7",
"u.	c #CACCC7",
"v.	c #C8CAC8",
"w.	c #CDCBC8",
"x.	c #CBCAC9",
"y.	c #CBCCC8",
"z.	c #CBCBC9",
"A.	c #CCCBC9",
"B.	c #C7CBC8",
"C.	c #C6CBC7",
"D.	c #CACCC8",
"E.	c #C8CCC7",
"F.	c #CCCCC9",
"G.	c #CBCCC9",
"H.	c #C7CBC9",
"I.	c #C9CCC8",
"J.	c #CACAC8",
"K.	c #C8CCC8",
"L.	c #C8CBC9",
"M.	c #C8CAC9",
"N.	c #C7CBCA",
"O.	c #C7CACA",
"P.	c #C8CBCA",
"Q.	c #DBD9DC",
"R.	c #C6CACA",
"S.	c #C2BFC2",
"T.	c #C7C4C7",
". . . . + @ @ @ @ @ @ @ @ # # # # # # # # # # # $ $ % % % % % % % % % % % % % % $ $ # # # # # # # # # # @ @ @ @ @ @ @ @ + . & * ",
". = = - ; - > , ' - ) ! ! ~ { ] ] ' ~ ^ { { { / / / / { / ( ( / { _ / ( _ / / / { ] { { : ~ < ] ] ] { ' ' ! - - [ - - - } - = | ",
". = - } = - } ' ) ~ ! ! ~ { ] ] ' ) ( { / < / / / / < < / < < < 1 < 2 2 < < / { ( / / ] ] { 3 < ] { ] ] { ' ' } - [ - - = = - 4 ",
". > 5 = > } - } ) ' ' { { ' { ~ / { ^ / ( / / / 2 < ) / _ < / / 6 _ 2 6 _ / ) 1 2 / / ( _ / < { { ~ { ' { ] ~ ! ~ - [ ' > = 7 4 ",
"+ - - } > - > ^ ' ' ] 8 ] ] ^ { < / / / / / 2 9 9 1 1 6 2 0 a 1 a b a 1 2 c / _ / c 1 / / / / / ] { / ~ ] ] ] ~ ~ ' - - > > - 4 ",
"@ = ; ^ ' ~ ~ ' ~ { ] ] ^ { { < / / / 1 ^ 6 1 2 0 2 1 d 1 1 1 1 1 1 1 1 1 d d 2 1 1 1 / 2 2 1 { ^ < { ( { { e { - ' ^ > - > , f ",
"@ - > - > ~ ' ' { ] / ] / / ^ { _ 1 2 / 1 0 a d 1 1 a 1 a g a a a g g a a a g a 1 2 a 2 / / 2 < _ ^ < ] ( { ~ ] { ' ' ^ - - ^ f ",
"@ ^ - > > ~ ' { ' { ^ { / / / < 1 d 1 1 1 1 1 a a g a 0 0 a a a h a a a 0 h 0 a i 1 a 2 a 1 j / 1 / / ^ / { { { ] { ' ' ~ - ' f ",
"@ } - ^ ' ^ { ] { ^ / < / _ / d 1 2 a 1 a a h k a h h l k l l l k k l k i i k a a 0 a 1 1 1 a 1 _ / 2 / / < { ~ { { { ~ ' - - f ",
"@ ' - ' ' ^ ] ] ^ { < / 1 ^ d 6 a h a g a l h k m l l k k k m m k k k m k k l l m a h h a a 1 1 a 6 ^ 2 _ ^ ^ { / ] ' { ~ ^ - n ",
"@ , ~ - ~ { / { { < / / 2 d o a d g a a a h l l k m k m m k p q p r p m r k m k p l k a a g a a 1 0 _ < 1 / / / { / ] ] ~ ' ^ n ",
"@ } ' ) { ] ~ { / ^ _ 1 d a a d a a 0 g h l k m m s p s p p t p m p p s t q k t m k m l a k m a o 1 a o ^ 1 1 ^ < { ^ ] ~ ~ ' n ",
"@ ' ' { { { u ^ ^ / d v o a 1 a a a h l l k m k k p k m m m m m w x w t k k s q t k k k r l h a g a 1 y j 1 1 / / { / / ~ { ~ z ",
"@ ~ ^ { ^ ^ { / / 1 h o a h a k h m l l m m t s t m m x t w x p p A x x x m t m p p t m r k l h a a g d 2 B 1 / / 2 / { ' { ~ z ",
"# ~ { ~ ^ / / / d a 1 a d a m m m l k m t p C m x x x p t x t x D x t p E x x t t m t s t t m q m a g g 2 a 1 2 1 / < { / ' { z ",
"# ~ { / ^ ^ u / d d a a a h F r l m s q s m t x x t t x m t x x x x x x m m t t A x w k s p m k l r a a a a o d 2 _ / / / { ] z ",
"# ~ / ^ / ^ ^ 1 h o h a a F r s r t m p p w x G t t H x H A A G x G I A A H x m x E A t t p p s m r m a g o a o d 1 ^ ^ { ^ ~ z ",
"# 8 ) ^ / ^ 1 1 a h F k a h p m t p s m m t C t H J x x G K x x x L G M J G G H K w t p t t s p k m l r r a 1 a ^ 1 / ^ ^ u ~ z ",
"# ] ^ / ^ ^ 1 d a h a r m m m t q q t x x t m x A x x H G G H H N J O H x K G G G x P C x x m p l t k l h l 1 h a h 1 / / / ) Q ",
"# < j / d 1 h d a F a h m s t t t m t E C P x J x M K J J J J J J R J J J H K x x G x w t t m t s t k r m l a d 0 o 1 / / / ^ Q ",
"# ^ / ^ ^ 1 a g a a r m s r t p C t C t P G G R K J J J R J S S S R R H J R H x M G x H t x p m t p t k l r l a h a d 1 ^ 1 / Q ",
"# ^ / ^ 1 1 F h h l h r q s t t t t G x x x M M J H R R R O N J N R O R S R G H J J J x H m C t t s q t q m l k d 1 d 1 6 d { Q ",
"# u / u d h F a a l m l m t t t t x K t J G M J R M R N N T R R T U V T J R S R R H K M x x m p t k t t t l h r o a o d d d / Q ",
"# u d d 1 a g a k r m q m W C P C C P x M x J R M S R T R U X X X X Y U V T J R J J H S M x t C x t t t k s r l g h a d d v d Q ",
"# u 1 d h F F F r s s s t C P P G Z G G ` M J V S R V X X R V U X X U R Y V R R S J J H M M H Z C x C s t  .r r l h g v a u 1 ..",
"# / d d F o h F r r q t t C m t G K G J G J V R +.U X @.X U #.#.#.$.#.U U #.U +.T R %.R M G G x G x t q t t s a g F h h 1 1 / Q ",
"# / ^ a F F a l l &.s t W t P G M P G M *.J V M V X $.X #.#.$.=.=.-.$.$.#.U ;.X R R V J M G H K Z C t t P m q F r F a 1 g / ^ ..",
"# 1 ^ 1 h g h g s &.>.s P s P C M K M M M V V U U -.X #.=.,.'.=.#.'.=.;.#.X X Y X R S J M ` G x G G P C t t q r q k a g h 1 d ..",
"# ^ ^ 1 F g F l r m s s E C Z t M J ` ` R V X X #.$.#.'.'.).,.!.!.!.=.'.'.=.#.$.U T U V R M G C C C P >.q W  .r s k h g F 1 u ..",
"# 1 u h h g F l s s s P t C x M P G M M R V *.R $.-.,.,.~.!.{.].].^.!.=./.'.#.,.#.U *.V %.M M G x C P C Z t (.m s l h F h 1 d ..",
"# d v a F g F r W s s t C >.x Z Z G R *.R R Y U $.'.,./._.~.].:.<.[.:.}.|.,.#.'.;.X U V J M M G x P x P >.t s t s l h a h 1 ^ ..",
"# 1 d 1 F g F l W W >.W Z Z Z G M M ` *.R ` U X '.'.1.~.2.3.].[.<.[.].~.:.,.'.,.;.X *.V R M V G Z Z P t P r  .s s l F h F a ^ ..",
"# o v a 4.r r l s s 5.t 6.C Z M Z M R M V X *.X $.7.,.~.|.:.8.<.9.<.0.:.].,.=.'.$.U a.R V R G x C Z t >.C s q s s F h g g d v ..",
"# d v a h l F r s s s t C >.P M M Z b.M Y V Y c.-.,.,.,.d.d.3.e.9.3.:.:._.~.,.,.-.$.@.V R ` M Z Z G t Z P s >.W r k F g h a v ..",
"# j d d F F F r s r s P 6.s P G Z Z ` ` f.X Y a.-.,.7.'.~.:.e.e.<.e.<.2.|.,.7.$.#.$.Y R *.*.J Z Z Z Z >.t s >.W s l h g g 1 ^ ..",
"# / v v h F h r q s s t P C P C Z Z b.` *.V X -.-.$.,.~.~.].:.<.<.d.|.:.,.|./.'.X g.X V *.M ` K Z G P C P t s s r r F F F 1 d ..",
"# u h v F F r r s s s 6.Z C Z G Z M h.` ` *.X g.$.$.7.7.|.~.~.:.:.i._.:.:.,.-.g.$.Y V V Y ` h.Z C P Z C P t s s j.4.r F v d d Q ",
"# d F v m 4.r F  .s W >.t Z 6.Z Z Z Z V Y Y V @.-.k.;.'.,.|.|.|.:.:.|.i.l.,.,.k.$.X V Y *.M Z Z Z P 6.6.s s W s l r F F h v d Q ",
"# ^ v F h h r r r s W 5.P P Z Z Z f.Z h.` Y Y V -.-.'.,.-.7.|.i.i.7.~.,.,.$./.-.g.R Y Y ` h.Z Z Z P >.Z t >.s s r m.l F h u d Q ",
"# v o v h F r h r s W n.s Z C Z Z G Z h.b.Y Y Y X g.,.'.'.,.,.,.,.,.-././.k.-.Y Y *.` ` M Z Z Z Z >.C s 5.s &.s &.r g F F o.u Q ",
"# v u F p.F 4.r r s W >.>.W W >.Z C M *.h.` Y Y Y Y Y g.7.q.7.7.,.7.$.$.$.-.#.V Y Y ` ` Z Z M M Z C Z P >.W W s m F v h F d v Q ",
"# v u d v h 4.r F r s W s >.6.P 6.Z G f.Z h.` Y ` Y $.$.g.g.-.-.-.-.-.-.Y X r.*.Y ` ` r.Z Z M Z 6.6.P n.s W s l m F F 1 v v v Q ",
"# d v h v v m 4.&.r  .s 6.6.P Z C 6.h.f.Z M r.M ` Y Y *.k.s.-.g.g.$.X Y $.Y Y Y ` ` h.h.M t.h.C Z P P >.W s u.r r F h v v.1 u Q ",
"# d d v v F h F r &.W 5.s 6.>.P 6.f.Z Z f.r.Z r.` ` ` Y Y r.k.Y r.$.Y Y Y Y Y ` ` r.Z Z M Z 6.Z 6.C >.6.s  .r r F h F v d v v z ",
"# j d v h o.p.F &.r r W n.W >.n.6.6.Z 6.Z ` ` M h.h.M ` ` Y Y Y Y Y Y ` ` ` r.h.f.h.t.C Z 6.Z 6.W >.5. .W u.h r r h F d d v d z ",
"# o.u v v F v h F u.s &. .W W >.6.Z 6.w.6.h.M f.Z Z r.r.r.k.r.` *.` r.r.r.h.h.Z f.f.Z x.6.6.W Z 6.5.6.W s r s F 4.h v v v ^ u z ",
"# u u ^ o.v v p.F &.r F W >.W 6.5.n.W Z 6.Z Z r.Z Z r.Y h.Z Z h.h.r.r.Z h.Z f.f.C Z Z 6.Z Z W n.>.W s  .y.F l m.r F v d v v u z ",
"@ ^ v.u v v h 4.F &.&.&.&.W y.s z. .6.6.6.Z 6.Z A.f.f.f.Z f.r.f.f.` r.Z Z f.` f.Z 6.Z Z Z Z n.s s s 5.&.r r F r F 4.d u v.u ^ z ",
"@ u B.C.d o.v F p.m r r r &.y.y.W W A.6.P P Z 6.Z 6.6.h.r.h.Z M r.M h.Z f.Z Z 6.6.6.6.Z P 5.6.6.W  .r &.W r F F F F v v d u ^ z ",
"@ u u o.j v o.v F F m D.r s r y.5.W 6.y.6.>.Z P 6.C w.6.Z 6.6.Z 6.6.Z 6.6.w.>.6.Z Z Z 5.6.W y.s >.y.&.r r 4.F E.F v o.d u v ^ n ",
"@ B.^ ^ v.d o.v h o.F r &.r r W W y.W W 6.>.6.6.Z h.6.Z Z Z w.w.t.w.6.w.w.6.Z h.Z n.6.n.n.y.s y.W r &.u.4.&.F v v v v u v ^ u n ",
"@ } B.^ v j v.o.v F v F r 4.u.s &.W  .5.W W 6.F.5.n.n.P Z W Z 6.6.z.6.6.6.6.n.6.>.6.n.W s >.s y.&.r r 4.F F v d v v d u v ~ } n ",
"@ } v.u } v u v d v F F F m 4.r W W &.6.5.5.6.W G.F.5.>.>.6.6.6.5.n.n.6.6.n.6.6.A.6.W n. .y.&.&.r D.&.r p.o.4.v o.u u v u o.B.n ",
"@ } } H.o.B.o.u v o.F m.o.p.m 4.4.r W r y.W 5.n.W 6.W y.6.n.n.n.>.n.A.6.6.z.W 6.W 5. .y.W r r r I.m.h F 4.h v o.B.o B.u u } } f ",
"@ B.} B.B.u v v v v v F F &.F J.&.D.&.&.W r &.W 5.n.n.W 5.s 6.W 6.W n.n.y.>. .n. .W y.&.s r u.&.r r F v h v v d u o.^ B.B.} } f ",
"@ } B.} } o.u u o.v v v v m.F K.u.r 4.D.r  .W r &.y.W n.y.5.W n.5.5.n. . . .y.y.u.r s W r 4.&.F p.v o.v.v o.v u u ^ B.B.} } B.f ",
"+ } H.} } o.o.^ u o.u v.o.v F F 4.p.m &.F D.D.s W W W W &.W D.W y.D. .W W D.s W s u.r r &.&.r p.o.F F v v v u B.B.u o.B.} o.7 4 ",
". L.7 M.B.B.} B.u } v u o.v o.F F r 4.p.4.&.r u.4.D.D.u.W r W W s s W s s u.u.y.u.&.r r u.p.F h 4.v o.v u u u } u } } } } H.} 4 ",
". L.M.7 L.} B.} B.u } B.o.v o.v v v F &.4.F r r r r &.F &.4.D.&.s &.D.&.4.&.&.&.&.h p.p.4.4.4.F v o.4.u v v ^ o.o.B.} B.7 7 H.4 ",
". H.7 B.H.7 o.} v.B.K.B.u o.u v o.o.K.F F &.4.I.p.u.p.&.r &.&.r r &.&.&.m F F F p.F F 4.d F o.v v v u o.B.u o.B.} } o.7 7 B.7 | ",
". N.H.H.B.7 H.v.B.} v.B.u ^ o.o.o.v F o.v v F F F 4.4.4.I.F p.F p.u.u.4.I.F 4.4.h h F F o.o.o.v v o.u ^ u o.o.} } B.H.7 H.7 N.| ",
". O.H.H.H.o.7 7 o.o.H.o.o.o.} B.o.o.v o.F v o.o.v F F 4.F 4.F 4.4.4.4.F 4.h F F F v o.o.v v v o.v v u o.o.B.} } L.7 7 M.H.N.P.| ",
"Q.R.N.7 H.H.M.7 7 L.o.} B.B.B.u u u o.o.u v o.v v o.o.K.v v v v F 4.F v F v v v v v o.v v K.u v u u o.o.B.B.} L.7 7 B.7 H.7 N.S.",
"T.S.S.| | | | 4 4 4 f f f n n n n n z z z z z z z z z Q Q Q Q Q Q Q Q Q Q z z z z z z z z z n n n n n f f f f 4 4 4 4 | | | S.S."};
